<svg width="679" height="206" viewBox="0 0 679 206" fill="none" xmlns="http://www.w3.org/2000/svg">
<path d="M158.859 121.422C159.733 122.87 160.467 124.449 161.255 125.949C159.341 126.715 157.265 126.686 155.227 126.816L155.317 165.203L123.038 165.141L123.361 160.09C131.586 160.143 141.174 161.127 149.232 159.867C149.276 147.094 149.197 134.321 148.995 121.55L158.859 121.422Z" fill="#383838"/>
<path d="M253.589 159.485C257.629 144.881 260.114 129.616 263.629 114.834C265.495 117.791 267.338 120.761 269.16 123.745C265.942 137.362 263.823 151.782 259.615 165.089L228.093 164.989C228.437 163.186 228.766 161.381 229.082 159.574C234.483 159.609 240.059 159.938 245.435 159.426L253.589 159.485Z" fill="#383838"/>
<path d="M410.05 144.009L449.256 143.993L451.648 149.628C439.718 150.071 427.824 149.63 415.893 149.685C413.763 154.609 411.763 159.679 409.423 164.502L379.352 164.447L381.04 158.743C387.944 159.063 396.203 159.913 402.998 158.916L410.05 144.009Z" fill="#383838"/>
<path d="M200.542 61.7002C203.078 61.8362 205.774 64.5682 207.389 66.3542C213.341 72.9362 216.316 82.6222 215.763 91.4022C215.193 100.426 211.38 108.216 204.585 114.172C201.806 116.608 198.615 118.69 195.465 120.615C202.625 135.031 209.096 149.833 216.594 164.067C205.92 164.242 195.22 164.573 184.545 164.363C183.733 162.739 182.889 161.124 182.146 159.467C191.621 159.529 201.095 159.465 210.568 159.276C206.372 150.722 202.058 142.226 197.628 133.79C194.536 127.891 191.085 122.001 188.527 115.852C191.833 114.226 195.116 112.513 198.063 110.286C204.163 105.677 208.356 99.4312 209.389 91.7372C210.966 80.0002 207.589 70.8852 200.542 61.7002Z" fill="#383838"/>
<path d="M437.978 52.9034C439.406 52.3654 440.02 51.8784 441.475 52.7024C445.669 55.0764 494.227 152.265 498.891 164.734C493.872 164.832 464.752 165.783 462.184 164.392C461.392 163.091 461.244 162.454 461.171 160.986L461.662 159.912C465.283 159.034 469.025 160.01 472.637 159.109L491.556 158.809C487.289 148.924 482.141 139.285 477.41 129.607C464.724 103.803 451.58 78.2354 437.978 52.9034Z" fill="#383838"/>
<path d="M344.552 54.3268C345.041 52.4608 344.961 52.3998 346.626 51.1998C347.455 51.2318 347.702 51.0548 348.333 51.6728C349.329 52.6498 349.752 54.2618 350.122 55.5568C351.824 61.5228 352.235 67.9308 353.632 73.9898C357.956 92.9705 361.959 112.019 365.64 131.136C367.801 141.927 371.063 153.86 371.29 164.84C365.507 164.888 342.968 166.056 338.86 164.49C338.172 162.675 338.347 160.844 338.393 158.939C347.314 158.967 356.234 158.864 365.153 158.628C358.592 123.8 351.725 89.0335 344.552 54.3268Z" fill="#383838"/>
<path d="M89.4453 52.817C91.4323 52.789 93.4103 52.711 95.3873 52.929L95.3463 164.969L63.6123 164.889C63.6693 163.094 63.6893 161.291 63.8373 159.5C69.8883 159.582 83.3863 160.61 88.9003 159.27C89.5093 130.149 88.9933 100.907 88.9983 71.773C90.1593 65.94 89.4643 58.812 89.4453 52.817Z" fill="#383838"/>
<path d="M57.7693 48.9795L88.9923 49.1035C89.2313 56.6385 88.8373 64.2215 88.9983 71.7735C88.9933 100.907 89.5093 130.149 88.9003 159.27C81.3283 158.009 66.1743 159.069 57.8853 159.141C57.0293 122.496 57.7843 85.6485 57.7693 48.9795Z" fill="#F2EEE6"/>
<path d="M370.911 158.484C374.527 149.542 379.208 141.041 383.713 132.528L401.589 98.691L418.717 65.705C421.802 59.819 424.679 53.38 428.505 47.951C429.664 47.326 430.572 46.814 431.959 47.076C434.992 47.65 436.491 50.521 437.977 52.903C451.58 78.235 464.724 103.803 477.409 129.607C482.14 139.285 487.288 148.924 491.555 158.809L472.636 159.109C467.062 158.842 461.421 159.102 455.862 159.512C454.65 156.156 453.088 152.893 451.647 149.628L449.255 143.993L410.049 144.009L402.997 158.916C396.23 157.523 378.693 158.479 370.911 158.484Z" fill="#F2EEE6"/>
<path d="M434.66 109.29C436.634 113.513 438.311 117.821 439.985 122.167L428.794 121.967C431.129 117.881 431.926 113.285 434.66 109.29Z" fill="#5D5D5D"/>
<path d="M430.417 99.6016C431.8 102.845 433.214 106.075 434.66 109.291C431.926 113.286 431.129 117.882 428.794 121.968L419.715 122.151C422.46 114.445 426.689 106.895 430.417 99.6016Z" fill="#383838"/>
<path d="M117.336 49.072C136.801 49.006 172.827 46.649 189.412 53.834C193.539 55.622 197.116 58.847 200.542 61.7C207.589 70.885 210.966 80 209.389 91.737C208.356 99.431 204.163 105.677 198.063 110.286C195.116 112.513 191.833 114.226 188.527 115.852C191.085 122.001 194.536 127.891 197.628 133.79C202.058 142.226 206.372 150.721 210.568 159.276C201.095 159.465 191.621 159.528 182.146 159.467C181.455 159.477 180.502 159.578 179.841 159.405C179.583 159.337 178.925 159.064 178.69 158.829C176.126 156.277 164.849 131.957 161.537 126.416L161.254 125.949C160.466 124.449 159.732 122.87 158.858 121.422L148.994 121.55C149.197 134.321 149.276 147.094 149.231 159.867C140.635 158.81 126.619 159.626 117.347 159.608L117.336 49.072Z" fill="#F2EEE6"/>
<path d="M148.954 74.2787C156.841 74.0807 167.15 73.3067 173.715 78.3587C170.379 79.5677 159.546 78.5527 154.916 78.9807C154.757 78.9957 154.599 79.0056 154.44 79.0186C154.425 85.1086 154.951 91.8387 154.112 97.8427C152.349 97.8977 150.625 97.9847 148.873 98.1877L148.954 74.2787Z" fill="#383838"/>
<path d="M173.715 78.3594C176.004 81.0014 176.732 84.2134 176.478 87.6994C176.28 90.4104 175.047 92.7854 172.953 94.5114C167.691 98.8484 156.406 99.0714 149.864 98.3374C149.532 98.3004 149.203 98.2384 148.873 98.1884C150.625 97.9854 152.349 97.8984 154.112 97.8434C154.951 91.8394 154.425 85.1094 154.44 79.0194C154.599 79.0064 154.757 78.9964 154.916 78.9814C159.546 78.5534 170.379 79.5684 173.715 78.3594Z" fill="#5D5D5D"/>
<path d="M297.418 109.779C307.214 96.7433 316.567 82.8323 325.627 69.2773C329.78 63.0643 333.545 56.2733 338.097 50.3683C338.736 49.5383 339.398 48.5353 340.504 48.3113C341.697 48.0703 342.346 48.2843 343.195 49.1363C344.52 50.4653 344.518 52.5953 344.551 54.3273C351.725 89.034 358.592 123.801 365.152 158.628C356.234 158.864 347.314 158.968 338.392 158.939L332.079 159.035C329.535 148.956 328.31 138.342 326.187 128.135C317.102 140.992 309.731 155.617 300.029 167.968L294.206 161.952C289.826 160.161 273.857 130.319 269.159 123.745C267.338 120.761 265.494 117.791 263.628 114.834C260.113 129.616 257.628 144.881 253.588 159.485L245.434 159.426C240.626 158.847 225.583 160.244 222.652 158.433C221.856 149.446 239.303 86.4693 242.966 72.7813C244.591 66.7123 245.813 60.3373 247.794 54.3893C248.297 52.8773 249.04 50.6843 250.203 49.5403C251.153 48.6043 251.481 48.6793 252.714 48.7033C254.368 49.5693 255.006 50.6793 255.989 52.2293C258.065 52.4783 259.235 52.2153 260.598 53.9883C269.068 65.0083 276.573 77.1373 284.257 88.7173C288.516 95.1363 294.683 102.618 297.418 109.779Z" fill="#F2EEE6"/>
<path d="M255.989 52.2295C258.065 52.4785 259.235 52.2155 260.598 53.9885C269.068 65.0085 276.573 77.1375 284.257 88.7175C288.516 95.1365 294.683 102.618 297.418 109.779C296.873 110.698 296.43 111.234 295.588 111.894C292.448 109.268 276.728 83.2495 272.976 77.5565C267.389 69.0775 261.296 60.8845 255.989 52.2295Z" fill="#383838"/>
<path d="M324.049 116.627C324.715 120.472 325.428 124.308 326.188 128.135C317.103 140.992 309.732 155.617 300.03 167.968L294.207 161.952C298.04 157.327 301.237 152.001 304.506 146.966C311.059 136.872 317.325 126.612 324.049 116.627Z" fill="#383838"/>
<rect x="519" y="17" width="160" height="172" rx="80" fill="#2A0704"/>
<path d="M565.303 150.85C566.123 150.753 566.947 150.669 567.772 150.766C568.85 150.893 569.657 151.573 570.252 152.434C571.311 153.965 571.445 156.087 571.12 157.865C570.768 159.787 570.038 160.912 568.455 162.043C567.076 162.206 565.824 162.238 564.668 161.374C563.559 160.546 563.065 159.205 562.962 157.871C562.77 155.372 563.686 152.75 565.303 150.85Z" fill="#814546"/>
<path d="M557.819 143.992C560.227 144.378 561.681 148.06 563.94 148.953L564.655 148.5L564.931 148.647L564.728 149.213C564.339 149.446 563.769 149.735 563.435 150.041C561.89 151.456 561.368 155.847 561.114 157.817C559.461 157.326 557.969 157.074 556.242 157.209C555.316 157.281 554.776 157.348 554.165 158.061L554.254 158.599C556.061 158.356 558.565 158.026 560.203 158.938C561.114 159.445 561.27 160.077 561.553 161.01C561.585 161.117 561.615 161.223 561.646 161.329C561.807 161.644 561.949 161.977 562.097 162.298L561.763 162.763C559.152 163.606 555.849 165.215 553.108 165.272C552.433 165.286 551.765 165.157 551.319 164.607C550.23 163.264 550.388 160.517 550.48 158.863C550.812 152.955 553.371 147.881 557.819 143.992Z" fill="#814546"/>
<path d="M606.031 142.185L606.543 142.203C607.867 143.55 610.024 149.732 610.912 151.814C603.224 154.656 596.492 157.249 590.298 162.821C589.254 163.679 588.32 164.724 587.365 165.681C588.961 160.139 588.883 154.101 588.656 148.389C594.281 146.01 600.26 144.197 606.031 142.185Z" fill="#F2EEE6"/>
<path d="M572.168 151.791C574.81 148.928 579.105 147.419 582.966 147.149C583.839 147.087 584.85 147.196 585.535 147.79C587.028 149.085 586.768 151.97 586.688 153.755C586.418 159.82 585.771 168.335 580.839 172.653C580.746 172.736 580.648 172.815 580.552 172.896C575.497 171.139 573.089 167.696 569.385 164.165C570.133 163.609 570.896 163.064 571.628 162.486L572.006 162.61C574.289 163.371 577.178 165.761 579.507 165.567L579.836 165.161C578.772 162.835 572.865 162.432 572.5 160.278L572.918 157.799C572.941 155.735 572.578 153.806 572.168 151.791Z" fill="#814546"/>
<path d="M572.918 157.8C574.87 157.176 578.193 155.859 580.19 156.644C578.664 158.597 574.544 158.614 572.5 160.279L572.918 157.8Z" fill="#401617"/>
<path d="M593.703 33.2287C598.605 32.5899 604.348 33.3874 609.15 34.4124C623.335 37.4396 634.894 47.5284 642.581 59.395C649.866 70.641 653.867 83.7749 650.86 97.0983C649.289 104.057 645.839 108.691 640.654 113.528C639.157 114.925 637.489 116.562 635.733 117.628C635.145 117.984 635.305 117.908 634.725 117.766C632.429 109.884 630.41 102.216 627.056 94.677C621.688 82.6123 607.57 57.5282 594.821 52.9625C591.014 51.599 587.262 52.882 583.827 54.563C583.251 54.2336 582.665 53.9005 582.123 53.516C579.917 51.9489 577.725 48.677 577.324 46.0445C576.966 43.6912 577.804 41.4443 579.261 39.6056C582.735 35.2202 588.392 33.8313 593.703 33.2287Z" fill="#F2EEE6"/>
<path d="M591.229 55.0996C591.542 55.1217 591.836 55.1477 592.144 55.2092C600.471 56.8757 609.72 70.1737 614.254 76.8746C610.72 80.1184 607.382 84.0674 604.689 88.0294C603.16 90.2785 601.848 92.8197 600.076 94.882C599.663 95.3621 599.069 95.9355 598.783 96.4955C598.457 97.1343 598.494 97.3223 598.685 97.9524L599.236 98.2451C600.756 98.0248 602.117 96.9659 603.474 96.2822C605.814 95.1039 608.296 94.4775 610.857 95.3831C613.031 96.1521 614.952 97.9811 615.867 100.075C617.005 102.68 616.788 105.873 615.732 108.468C613.982 112.769 609.844 115.135 605.257 115.07C604.246 115.056 602.898 114.629 601.977 115.033C601.89 115.205 601.771 115.41 601.75 115.605C601.556 117.377 603.305 117.212 604.182 118.158C604.904 118.937 604.51 137.408 604.447 139.999C598.777 141.779 593.175 143.753 587.643 145.919C586.627 145.365 585.676 144.872 584.513 144.713C579.655 144.046 574.572 146.909 570.797 149.633L570.787 149.642L568.656 148.896L567.774 148.664C567.291 147.227 568.011 143.99 568.124 142.39C568.46 137.635 568.606 132.955 568.325 128.196C569.934 128.515 571.609 128.749 573.242 128.904C576.652 129.229 587.393 128.884 589.75 126.707C590.236 126.26 590.351 126.027 590.334 125.383C588.877 123.945 579.443 126.139 576.933 126.201C574.282 126.266 571.51 125.979 568.893 125.581C564.961 124.984 561.119 124.032 558.699 120.615C552.516 111.887 555.217 95.4436 557.157 85.439C553.829 81.8075 550.148 78.682 547 74.8404C554.95 72.9094 560.2 72.4358 567.782 68.5553C575.998 64.3504 581.524 56.2374 591.229 55.0996Z" fill="#F2EEE6"/>
<path d="M605.966 100.361C606.863 100.325 607.697 100.314 608.523 100.719C609.499 101.196 610.179 101.924 610.454 102.98C610.849 104.49 610.368 105.676 609.602 106.958C609.446 106.05 609.233 105.212 608.94 104.338C608.32 103.434 607.726 102.44 606.558 102.191C604.983 101.854 603.134 103.176 601.848 103.935C603.106 102.368 604.114 101.273 605.966 100.361Z" fill="#2A0704"/>
<path d="M587.36 59.3467C589.861 59.4358 591.948 60.0427 593.918 61.6309C594.174 61.8361 594.418 62.0531 594.653 62.2821C594.887 62.5114 595.108 62.7516 595.318 63.0025C595.528 63.2538 595.725 63.5146 595.909 63.7849C596.092 64.0557 596.262 64.3347 596.417 64.6219C596.573 64.9092 596.714 65.2035 596.84 65.5048C596.966 65.8058 597.077 66.1125 597.172 66.425C597.267 66.7371 597.346 67.053 597.41 67.3727C597.473 67.6927 597.52 68.0151 597.551 68.3398C597.765 70.5106 597.269 72.432 595.899 74.1249L594.848 74.0255C592.541 72.2376 594.034 67.8436 592.616 65.3239C591.324 63.0279 587.93 62.6072 586.531 60.573C586.667 59.8467 586.787 59.8386 587.36 59.3467Z" fill="#2A0704"/>
<path d="M581.153 97.6851C581.307 97.67 581.461 97.6538 581.614 97.6403C582.527 97.5626 583.135 97.6506 583.844 98.2386C583.721 98.837 583.577 99.1134 583.081 99.5011C578.768 102.877 569.846 103.348 564.57 102.703C563.986 102.586 563.274 102.387 562.774 102.055C562.163 101.649 561.749 101.095 561.585 100.387C561.96 99.6842 562.404 99.3688 563.219 99.2668C564.381 99.1204 566.114 99.8187 567.354 99.9002C572.282 100.223 576.521 99.2009 581.153 97.6851Z" fill="#2A0704"/>
<path d="M583.219 67.9707C584.162 67.9712 585.044 68.0728 585.895 68.5123C587.246 69.21 588.106 70.297 588.499 71.7523C589.567 75.7019 587.532 81.0663 585.442 84.4099C583.517 87.4912 581.151 89.8305 577.489 90.6523C576.649 90.6405 575.709 90.4833 574.944 90.1264C573.588 89.4924 572.562 88.4205 572.093 87.0014C571.029 83.7851 572.355 79.476 573.812 76.5383C575.836 72.4581 578.825 69.4541 583.219 67.9707Z" fill="#2A0704"/>
<path d="M578.795 73.8311C579.039 74.148 578.946 73.9925 579.123 74.3732C580.376 77.084 581.839 79.5718 583.589 81.9964C582.427 84.2018 581.158 85.7483 579.138 87.195C578.806 87.2884 578.472 87.391 578.127 87.4331C577.249 87.54 576.139 87.3267 575.502 86.6852C574.907 86.0858 574.702 85.2008 574.641 84.3918C574.356 80.5789 576.283 76.6196 578.795 73.8311Z" fill="#F2EEE6"/>
</svg>
