<svg width="1024" height="1024" viewBox="0 0 1024 1024" fill="none" xmlns="http://www.w3.org/2000/svg">
<g clip-path="url(#clip0_2040_488)">
<path d="M363.539 939.109L283.365 938.962C264.885 938.951 245.755 939.989 227.388 938.07C192.296 934.403 157.12 917.366 132.317 892.401C130.912 890.989 129.535 889.551 128.184 888.087C126.834 886.624 125.511 885.135 124.216 883.622C122.921 882.109 121.655 880.572 120.418 879.011C119.181 877.45 117.973 875.867 116.795 874.261C115.617 872.656 114.47 871.028 113.353 869.379C112.236 867.73 111.15 866.061 110.096 864.372C109.041 862.683 108.019 860.974 107.028 859.246C106.037 857.518 105.08 855.772 104.155 854.009C103.23 852.245 102.338 850.465 101.479 848.668C100.62 846.871 99.7959 845.058 99.0056 843.23C98.2151 841.402 97.459 839.56 96.7374 837.704C96.0158 835.847 95.3293 833.978 94.6777 832.096C94.0261 830.214 93.4101 828.321 92.8294 826.416C92.2487 824.511 91.704 822.595 91.1951 820.67C90.6862 818.745 90.2135 816.81 89.777 814.867C89.3405 812.924 88.9406 810.973 88.5772 809.015C84.5315 787.974 86.007 766.306 85.8112 744.99C85.4593 706.713 85.3824 668.437 85.5806 630.161L85.1927 244.265C85.1977 242.956 85.219 241.648 85.2565 240.34C85.294 239.031 85.3478 237.724 85.4179 236.417C85.488 235.11 85.5744 233.804 85.6769 232.499C85.7795 231.194 85.8983 229.891 86.0333 228.589C86.1683 227.288 86.3195 225.988 86.4869 224.69C86.6542 223.392 86.8377 222.096 87.0373 220.802C87.237 219.509 87.4526 218.218 87.6843 216.93C87.9161 215.642 88.1638 214.357 88.4275 213.075C88.6912 211.793 88.9709 210.515 89.2664 209.24C89.5619 207.965 89.8733 206.693 90.2004 205.426C90.5275 204.159 90.8704 202.896 91.229 201.637C91.5876 200.378 91.9618 199.124 92.3516 197.875C92.7414 196.626 93.1466 195.381 93.5674 194.142C93.9882 192.903 94.4243 191.669 94.8758 190.441C95.3273 189.212 95.7939 187.99 96.2758 186.773C96.7577 185.556 97.2547 184.346 97.7667 183.141C98.2787 181.936 98.8056 180.738 99.3475 179.547C99.8892 178.356 100.446 177.171 101.017 175.994C101.588 174.817 102.174 173.646 102.775 172.483C103.375 171.32 103.99 170.165 104.619 169.017C105.248 167.87 105.892 166.73 106.549 165.599C107.207 164.467 107.879 163.344 108.564 162.229C109.249 161.114 109.949 160.007 110.662 158.91C111.375 157.813 112.101 156.724 112.841 155.645C113.582 154.566 114.335 153.496 115.102 152.435C115.869 151.374 116.648 150.323 117.441 149.282C118.234 148.241 119.039 147.209 119.858 146.188C120.677 145.167 121.508 144.156 122.352 143.155C123.195 142.155 124.051 141.165 124.92 140.186C125.788 139.207 126.668 138.238 127.561 137.281C128.454 136.324 129.358 135.378 130.274 134.443C131.19 133.508 132.117 132.585 133.056 131.673C134.499 130.267 135.968 128.888 137.463 127.537C138.958 126.186 140.477 124.862 142.02 123.566C143.563 122.271 145.13 121.004 146.72 119.767C148.31 118.529 149.922 117.321 151.557 116.143C153.192 114.965 154.848 113.818 156.525 112.701C158.202 111.584 159.899 110.499 161.616 109.444C163.333 108.39 165.069 107.368 166.824 106.378C168.579 105.387 170.352 104.43 172.142 103.505C173.932 102.58 175.739 101.689 177.562 100.831C179.385 99.9732 181.224 99.1493 183.077 98.3593C184.931 97.5691 186.799 96.8135 188.68 96.0925C190.561 95.3713 192.456 94.6852 194.363 94.034C196.27 93.3828 198.188 92.7671 200.117 92.1868C202.047 91.6064 203.987 91.0619 205.936 90.5532C207.886 90.0444 209.844 89.5719 211.811 89.1355C213.778 88.6991 215.753 88.2991 217.735 87.9357C232.822 85.1134 247.725 85.4636 262.976 85.5121L302.231 85.6345L430.44 85.7249L683.783 85.7353C716.095 85.705 748.449 85.1746 780.755 85.5497C782.061 85.5537 783.367 85.5738 784.673 85.6102C785.978 85.6464 787.283 85.6988 788.588 85.7674C789.892 85.8359 791.195 85.9205 792.497 86.0213C793.8 86.122 795.101 86.2388 796.4 86.3717C797.699 86.5045 798.997 86.6534 800.292 86.8184C801.588 86.9833 802.882 87.1642 804.173 87.3612C805.464 87.558 806.752 87.7708 808.038 87.9996C809.324 88.2283 810.607 88.4729 811.887 88.7334C813.167 88.9938 814.444 89.27 815.717 89.562C816.99 89.8539 818.259 90.1615 819.524 90.4849C820.79 90.8082 822.051 91.1471 823.308 91.5017C824.565 91.8562 825.818 92.2262 827.066 92.6116C828.314 92.997 829.557 93.3979 830.795 93.8141C832.033 94.2302 833.266 94.6616 834.493 95.1083C835.72 95.5549 836.942 96.0166 838.158 96.4934C839.374 96.9702 840.584 97.4619 841.788 97.9687C842.992 98.4753 844.189 98.9968 845.38 99.5332C846.571 100.07 847.756 100.621 848.933 101.186C850.11 101.751 851.28 102.331 852.443 102.926C853.606 103.521 854.762 104.129 855.91 104.752C857.057 105.375 858.197 106.012 859.33 106.663C860.462 107.314 861.586 107.98 862.702 108.659C863.818 109.338 864.925 110.03 866.024 110.737C867.123 111.443 868.212 112.163 869.293 112.896C870.374 113.629 871.445 114.376 872.508 115.135C873.571 115.895 874.624 116.668 875.667 117.454C876.71 118.239 877.744 119.038 878.767 119.849C879.79 120.66 880.804 121.484 881.807 122.321C882.81 123.157 883.803 124.005 884.786 124.866C885.768 125.727 886.739 126.6 887.7 127.485C888.661 128.37 889.61 129.266 890.549 130.175C891.488 131.083 892.415 132.003 893.331 132.934C894.68 134.323 896.004 135.736 897.303 137.173C898.602 138.61 899.874 140.069 901.121 141.551C902.368 143.033 903.588 144.537 904.781 146.062C905.974 147.587 907.14 149.134 908.278 150.701C909.417 152.268 910.527 153.854 911.608 155.461C912.689 157.068 913.742 158.693 914.766 160.337C915.79 161.981 916.784 163.643 917.748 165.322C918.713 167.001 919.647 168.697 920.551 170.41C921.455 172.123 922.328 173.852 923.171 175.595C924.014 177.339 924.825 179.097 925.605 180.87C926.385 182.643 927.133 184.429 927.849 186.228C928.565 188.027 929.249 189.839 929.901 191.663C930.553 193.487 931.172 195.322 931.758 197.167C932.345 199.013 932.898 200.869 933.418 202.734C933.938 204.6 934.425 206.474 934.879 208.357C935.332 210.24 935.752 212.13 936.138 214.028C940.78 237.84 939.02 263.652 938.997 287.817L938.892 393.111L938.685 654.751C938.64 696.516 939.396 738.403 938.719 780.152C938.705 781.495 938.675 782.839 938.628 784.182C938.581 785.525 938.517 786.867 938.436 788.208C938.356 789.549 938.259 790.889 938.145 792.228C938.031 793.567 937.901 794.904 937.754 796.24C937.607 797.575 937.443 798.909 937.263 800.241C937.083 801.572 936.886 802.901 936.673 804.228C936.46 805.555 936.23 806.878 935.984 808.199C935.738 809.52 935.476 810.838 935.197 812.152C934.918 813.467 934.623 814.778 934.312 816.085C934.001 817.392 933.673 818.695 933.329 819.994C932.986 821.293 932.626 822.587 932.25 823.877C931.874 825.167 931.482 826.452 931.074 827.733C930.666 829.013 930.242 830.288 929.803 831.558C929.364 832.828 928.909 834.092 928.438 835.35C927.967 836.609 927.48 837.861 926.978 839.108C926.476 840.354 925.959 841.594 925.426 842.828C924.893 844.061 924.345 845.288 923.782 846.508C923.219 847.727 922.64 848.94 922.047 850.146C921.453 851.351 920.845 852.549 920.222 853.74C919.599 854.93 918.961 856.112 918.308 857.287C917.655 858.462 916.988 859.628 916.307 860.786C915.625 861.944 914.929 863.093 914.219 864.234C913.509 865.375 912.785 866.506 912.047 867.629C911.308 868.752 910.556 869.865 909.79 870.969C909.024 872.073 908.245 873.167 907.452 874.252C906.659 875.337 905.852 876.411 905.032 877.476C904.213 878.541 903.38 879.595 902.534 880.639C901.688 881.683 900.829 882.716 899.957 883.739C899.086 884.762 898.202 885.773 897.305 886.774C896.408 887.775 895.498 888.764 894.577 889.742C893.656 890.72 892.722 891.686 891.777 892.641C890.832 893.596 889.875 894.539 888.906 895.47C879.068 904.921 867.707 912.595 855.771 919.135C814.847 941.558 783.848 939.176 739.309 939.063C708.514 938.985 677.551 938.335 646.772 939.116C645.147 936.241 643.982 933.131 642.724 930.083L761.409 929.974C764.265 918.693 764.852 906.201 766.578 894.663L780.12 798.043C759.843 790.974 736.825 788.23 715.544 786.112C715.535 779.741 715.561 773.371 715.624 767C778.7 769.722 827.457 785.544 882.542 815.392C882.703 784.171 882.674 752.949 882.455 721.728C874.248 721.2 865.814 719.469 857.656 718.26C844.782 716.352 831.841 714.634 819.018 712.416C818.941 704.855 818.914 697.294 818.937 689.733C827.466 687.739 836.402 686.655 845.048 685.217L901.274 675.975C910.579 674.428 920.019 673.214 929.235 671.211L929.356 643.311L929.489 363.033L929.46 286.393C929.447 264.192 930.637 241.097 926.019 219.251C925.634 217.44 925.217 215.637 924.768 213.841C924.319 212.045 923.837 210.257 923.324 208.478C922.811 206.699 922.267 204.93 921.69 203.171C921.114 201.412 920.507 199.663 919.868 197.925C919.229 196.188 918.56 194.462 917.859 192.748C917.158 191.035 916.428 189.334 915.667 187.646C914.906 185.959 914.115 184.285 913.294 182.626C912.473 180.966 911.622 179.322 910.743 177.693C909.863 176.064 908.954 174.451 908.017 172.854C907.08 171.258 906.115 169.679 905.121 168.116C904.128 166.554 903.106 165.01 902.057 163.485C901.008 161.959 899.933 160.453 898.83 158.966C897.727 157.479 896.599 156.011 895.444 154.564C894.289 153.117 893.108 151.692 891.903 150.287C890.697 148.882 889.466 147.5 888.211 146.139C886.956 144.778 885.676 143.44 884.373 142.125C864.577 122.302 840.15 107.133 812.957 99.9981C788.542 93.5922 764.455 94.5411 739.484 94.5954L682.076 94.6391L496.534 94.5651L338.832 94.5336L281.782 94.4824C258.019 94.4709 235.603 93.9551 212.399 100.023C185.019 107.184 159.183 122.538 139.225 142.477C137.922 143.78 136.644 145.107 135.39 146.456C134.136 147.806 132.907 149.178 131.702 150.572C130.497 151.966 129.318 153.382 128.165 154.819C127.012 156.256 125.885 157.713 124.784 159.191C123.684 160.668 122.611 162.165 121.564 163.682C120.518 165.199 119.5 166.734 118.509 168.287C117.518 169.841 116.556 171.412 115.622 173C114.689 174.589 113.784 176.194 112.909 177.815C112.033 179.436 111.187 181.072 110.371 182.724C109.554 184.376 108.768 186.042 108.013 187.722C107.257 189.402 106.532 191.095 105.837 192.802C105.142 194.509 104.479 196.227 103.847 197.958C103.214 199.689 102.613 201.43 102.044 203.182C101.475 204.935 100.937 206.697 100.432 208.469C99.9269 210.24 99.454 212.021 99.0131 213.81C98.5723 215.599 98.164 217.395 97.7882 219.199C93.6064 239.576 94.9698 261.313 95.0311 282.037L95.1896 360.964L95.0555 686.678C123.877 692.97 153.033 697.983 182.004 703.539L212.736 709.437C218.743 710.594 224.846 712.132 230.947 712.624L231.065 731.472C212.087 733.219 193.366 735.984 174.558 738.99L174.494 795.475C174.479 807.483 174.691 819.541 174.182 831.539C214.002 810.332 247.01 796.457 291.456 787.391C302.189 785.201 313.821 782.835 324.771 782.438C326.459 783.487 327.732 783.943 329.725 783.533C331.312 783.206 332.805 782.48 334.272 781.813L334.41 801.007C315.765 801.777 291.032 808.149 272.759 812.858C276.478 829.231 278.437 846.11 281.134 862.685C284.778 885.075 288.961 907.658 291.824 930.149L282.756 930.302C280.02 921.7 278.981 911.851 277.372 902.933C274.765 889.006 272.315 875.052 270.02 861.07C267.689 846.339 265.797 831.01 262.066 816.583C250.656 820.598 205.392 839.992 198.044 847.406L198.326 847.818C218.695 836.125 239.471 826.077 261.359 817.521C267.361 844.826 271.09 872.864 276 900.411C277.678 909.826 278.76 919.993 281.297 929.167L281.837 930.469C284.047 931.313 290.048 931.612 292.348 930.823C292.569 930.747 292.766 930.614 292.974 930.509C299.68 929.454 307.177 930.075 313.974 930.105C330.55 930.179 347.441 930.975 363.988 930.24C363.844 933.188 363.787 936.169 363.539 939.109Z" fill="#494949"/>
<path d="M927.839 684.744L928.255 684.715C929.487 686.329 929.03 703.864 929.07 707.234C922.276 705.531 915.149 704.586 908.24 703.411L872.535 697.336L859.89 695.513C882.588 692.214 905.178 688.275 927.839 684.744Z" fill="#F2EEE6"/>
<path d="M99.6013 751.695C99.9659 751.792 99.9447 751.729 100.205 752.103C100.639 752.725 100.664 753.174 100.771 753.898C102.1 762.845 118.245 856.505 118.002 857.706L117.148 856.764C115.548 854.204 114.095 851.544 112.669 848.883C97.8378 821.208 95.0768 799.204 95.519 768.297C95.5917 763.214 94.4421 757.937 95.9396 753.001C97.2028 751.74 97.8681 751.916 99.6013 751.695Z" fill="#F2EEE6"/>
<path d="M95.0922 699.875C113.015 702.765 130.817 706.691 148.688 709.913C156.46 711.313 177.012 713.917 183.36 716.629C178.693 717.002 174.035 717.476 169.388 718.05C158.518 719.603 147.671 720.917 136.852 722.847C122.957 725.325 109.226 728.561 95.482 731.751C95.2019 721.127 95.0719 710.502 95.0922 699.875Z" fill="#F2EEE6"/>
<path d="M900.309 724.41C910.021 725.406 919.809 727.424 929.451 728.996C929.399 776.648 933.35 802.045 911.016 847.251C907.568 853.81 903.68 859.956 899.539 866.087C899.088 818.848 900.267 771.636 900.309 724.41Z" fill="#F2EEE6"/>
<path d="M156.439 742.293C156.585 742.453 156.807 742.568 156.878 742.773C157.522 744.634 156.851 766.726 156.857 770.676C156.924 813.721 156.461 856.819 156.983 899.856C149.069 893 141.527 885.963 134.179 878.505C132.953 877.289 132.484 876.168 132.11 874.509C129.124 861.272 127.681 846.057 125.715 832.489C121.725 804.959 117.801 777.279 112.886 749.904C127.334 747.071 141.819 744.101 156.439 742.293Z" fill="#F2EEE6"/>
<path d="M198.326 847.817C218.695 836.124 239.471 826.076 261.359 817.52C267.361 844.825 271.09 872.862 276 900.409C277.678 909.824 278.76 919.992 281.297 929.166L280.807 929.794C275.256 930.966 266.718 930.057 260.825 930.057C226.41 930.062 205.478 927.871 174.563 911.427C174.148 895.447 174.391 879.396 174.54 863.411C182.343 858.055 190.684 853.379 198.326 847.817Z" fill="#F2EEE6"/>
<path d="M795.04 802.209C823.465 812.659 858.938 828.551 883.505 846.01C883.672 859.073 883.649 872.135 883.436 885.198C872.838 896.247 859.323 905.08 845.851 912.181C823.831 924.45 799.192 929.529 774.189 930.117C780.67 887.405 787.62 844.769 795.04 802.209Z" fill="#F2EEE6"/>
<path d="M175.356 460.238C177.358 460.414 179.357 461.321 180.848 462.662C184.225 465.7 186.845 470.066 189.593 473.691C193.439 478.764 197.378 483.645 201.618 488.393L201.465 488.961C194 482.566 179.059 472.105 174.315 464.296C174.165 462.505 174.628 461.852 175.356 460.238Z" fill="#F2EEE6"/>
<path d="M498.456 564.007C499.962 563.827 501.475 563.671 502.99 563.851C504.969 564.087 506.45 565.346 507.543 566.94C509.487 569.776 509.733 573.706 509.136 576.997C508.491 580.557 507.15 582.64 504.244 584.735C501.711 585.036 499.413 585.095 497.291 583.496C495.254 581.963 494.347 579.479 494.159 577.009C493.805 572.381 495.488 567.526 498.456 564.007Z" fill="#814546"/>
<path d="M238.914 432.665C239.576 430.922 240.195 429.094 241.421 427.654C244.185 424.404 248.261 422.635 252.475 422.428C253.029 422.398 253.583 422.396 254.137 422.422C254.69 422.448 255.241 422.501 255.79 422.581C256.339 422.663 256.882 422.771 257.42 422.906C257.958 423.042 258.488 423.203 259.009 423.391C259.53 423.579 260.041 423.793 260.542 424.033C261.042 424.273 261.529 424.536 262.002 424.824C262.476 425.113 262.934 425.424 263.377 425.758C263.82 426.092 264.244 426.448 264.651 426.824C268.73 430.628 269.266 434.896 269.412 440.142L268.801 440.694C258.815 438.498 248.733 435.533 238.914 432.665Z" fill="#F2EEE6"/>
<path d="M187.244 460.487C190.484 460.316 192.634 460.616 195.448 462.378C198.741 464.441 201.457 467.257 203.89 470.258C209.626 477.333 224.692 501.492 226.632 510.003C219.744 501.697 189.04 468.338 187.244 460.487Z" fill="#F2EEE6"/>
<path d="M307.843 553.506C309.022 554.913 309.528 557.995 310.084 559.801C300.407 566.248 274.431 579.927 263.552 578.906C262.479 575.556 260.95 572.328 259.551 569.101C276.329 566.262 292.747 561.512 307.843 553.506Z" fill="#F2EEE6"/>
<path d="M529.391 817.965C530.035 818.406 530.246 818.688 530.52 819.426C533.598 827.697 536.251 836.137 539.29 844.428C541.372 850.104 543.81 855.622 545.998 861.255C543.091 862.489 540.079 863.499 537.107 864.568L536.189 864.511C532.329 860.729 522.186 830.007 519.97 823.016C522.99 821.021 526.114 819.493 529.391 817.965Z" fill="#F2EEE6"/>
<path d="M484.716 551.309C489.137 552.023 491.807 558.842 495.954 560.495L497.266 559.656L497.774 559.929L497.4 560.978C496.687 561.408 495.64 561.943 495.027 562.51C492.191 565.131 491.231 573.262 490.766 576.91C487.73 576.002 484.991 575.535 481.82 575.785C480.12 575.918 479.128 576.042 478.007 577.362L478.17 578.359C481.488 577.908 486.086 577.298 489.093 578.987C490.765 579.926 491.051 581.096 491.571 582.824C491.63 583.021 491.685 583.218 491.742 583.415C492.038 583.997 492.298 584.615 492.571 585.209L491.957 586.069C487.163 587.63 481.099 590.61 476.067 590.716C474.827 590.742 473.601 590.503 472.782 589.485C470.783 586.998 471.072 581.91 471.242 578.847C471.85 567.906 476.549 558.51 484.716 551.309Z" fill="#814546"/>
<path d="M290.839 446.811C295.917 440.377 301.142 435.917 309.631 434.789C316.286 433.905 323.205 436.006 328.386 440.248C332.481 443.601 335.566 448.685 336.027 454.025C336.215 456.209 336.04 458.477 335.935 460.666L335.385 461.145C325.539 458.1 315.714 454.99 305.909 451.814C300.962 450.233 295.546 448.97 290.839 446.811Z" fill="#F2EEE6"/>
<path d="M190.802 403.604C197.299 402.986 204.598 405.224 209.682 409.23C215.893 414.123 217.494 420.464 218.345 427.905L204.391 425.038C193.606 422.876 182.705 421.274 171.896 419.214C172.642 416.916 173.383 414.681 174.744 412.656C178.586 406.941 184.348 404.85 190.802 403.604Z" fill="#F2EEE6"/>
<path d="M528.83 865.012L529.504 865.029C530.51 866.682 531.248 868.483 532.04 870.245C536.034 868.78 543.621 864.806 547.62 866.36C550.749 867.577 551.622 871.515 552.672 874.349C540.793 879.636 529.111 884.561 516.118 886.372C506.146 887.964 495.158 887.273 485.111 886.657C500.058 880.241 514.239 872.169 528.83 865.012Z" fill="#5E5E5E"/>
<path d="M231.852 475.281C238.175 475.934 247.009 479.442 253.317 481.236C263.671 484.181 274.144 486.692 284.572 489.361L278.653 499.801C278.556 499.97 278.469 500.147 278.361 500.31C276.28 503.448 265.672 504.37 262.063 505.107C255.617 500.767 247.431 496.41 242.208 490.623C238.259 486.248 235.049 480.245 231.852 475.281Z" fill="#F2EEE6"/>
<path d="M573.234 547.961L574.174 547.996C576.605 550.49 580.565 561.937 582.195 565.793C568.079 571.056 555.72 575.858 544.347 586.176C542.43 587.765 540.715 589.701 538.962 591.472C541.892 581.209 541.749 570.028 541.332 559.451C551.66 555.045 562.638 551.687 573.234 547.961Z" fill="#F2EEE6"/>
<path d="M511.061 565.751C515.911 560.45 523.798 557.656 530.886 557.155C532.49 557.041 534.346 557.243 535.603 558.343C538.345 560.741 537.866 566.082 537.72 569.388C537.224 580.62 536.037 596.388 526.982 604.385C526.81 604.538 526.631 604.684 526.455 604.834C517.173 601.581 512.752 595.206 505.951 588.667C507.325 587.636 508.725 586.627 510.069 585.557L510.763 585.786C514.956 587.196 520.26 591.621 524.536 591.263L525.14 590.511C523.186 586.203 512.341 585.457 511.67 581.468L512.438 576.878C512.48 573.056 511.814 569.483 511.061 565.751Z" fill="#814546"/>
<path d="M512.438 576.877C516.021 575.722 522.122 573.283 525.789 574.736C522.988 578.353 515.423 578.384 511.67 581.467L512.438 576.877Z" fill="#401617"/>
<path d="M125.226 420.215C144.151 419.417 164.426 423.202 183.013 426.542C253.731 439.249 322.542 460.898 389.344 487.134C388.805 489.337 388.425 491.685 387.266 493.655L386.357 493.734C373.465 488.2 360.448 482.976 347.306 478.063C334.164 473.151 320.912 468.555 307.55 464.276C294.189 459.997 280.732 456.04 267.181 452.404C253.63 448.768 240 445.458 226.291 442.474C191.838 434.87 157.261 429.187 121.942 428.13C122.308 426.179 122.567 424 123.289 422.152C123.807 420.826 124.001 420.76 125.226 420.215Z" fill="#F2EEE6"/>
<path d="M210.977 467.602C211.448 467.558 211.919 467.511 212.392 467.487C225.023 466.828 232.26 488.875 240.953 496.612C248.641 503.454 257.851 509.056 266.195 515.125C269.84 517.775 273.893 521.614 277.826 523.705C278.903 524.277 279.406 524.234 280.579 524.17C281.519 523.38 282.017 523 282.337 521.792C279.924 517.626 270.835 511.895 266.827 508.78C269.794 508.463 272.99 508.074 275.864 507.294C283.622 505.188 286.693 496.825 290.112 490.385C293.487 491.29 296.94 492.004 300.343 492.803C298.955 498.135 297.82 503.31 297.591 508.829C299.027 510.938 300.685 512.91 302.175 514.987C302.154 523.514 299.473 529.703 296.2 537.366C297.043 542.151 297.946 546.933 299.557 551.526C289.833 556.113 279.502 559.602 269.14 562.428C267.036 556.127 265.45 549.61 264.125 543.105C254.262 533.787 242.964 525.755 232.172 517.539L234.307 513.208C231.518 507.18 228.815 501.062 225.619 495.236C223.25 490.916 210.754 471.643 210.046 468.806L210.977 467.602Z" fill="#F2EEE6"/>
<path d="M140.592 434.186C207.221 440.236 273.654 457.305 336.561 479.672C343.483 482.133 360.774 487.631 366.034 491.383C365.058 492.176 363.86 491.955 362.624 492.018C317.81 494.745 275.621 481.944 233.023 469.817C230.831 469.193 228.001 468.724 225.998 467.691C222.597 465.938 220.193 462.865 216.28 461.993C212.676 461.19 209.468 462.607 206.504 464.527C203.134 461.267 199.569 458.017 195.066 456.419C190.597 454.834 187.654 455.564 183.572 457.483C173.668 451.569 161.363 448.003 150.518 444.035C147.894 439.623 144.76 436.991 140.592 434.186Z" fill="#5E5E5E"/>
<path d="M495.458 589.04C497.695 588.865 499.942 589.274 502.161 589.549C507.223 598.133 514.58 604.475 523.171 609.319C508.99 633.594 498.123 658.45 488 684.638C482.152 683.662 476.271 683.035 470.381 682.38C459.956 681.205 449.524 680.095 439.085 679.049C444.684 664.132 451.892 649.509 459.342 635.433C464.613 625.471 479.214 598.535 487.604 592.291C489.868 590.606 492.795 589.863 495.458 589.04Z" fill="#F2EEE6"/>
<path d="M465.509 647.053C466.479 647.007 467.532 646.883 468.493 647.046C469.65 647.242 471.132 648.402 471.704 649.441C472.476 650.843 472.566 652.319 472.058 653.817C471.265 656.155 469.663 657.206 467.523 658.209C466.711 658.18 465.781 658.194 464.992 658.008C463.361 657.622 461.812 656.535 461.084 654.992C460.572 653.905 460.529 652.731 460.871 651.59C461.617 649.105 463.307 648.151 465.509 647.053Z" fill="#2A0704"/>
<path d="M487.96 608.082C488.98 608.195 490.285 608.264 491.233 608.643C491.383 608.702 491.53 608.769 491.673 608.844C491.816 608.918 491.955 608.999 492.09 609.087C492.225 609.175 492.356 609.27 492.481 609.371C492.606 609.472 492.727 609.579 492.842 609.692C492.957 609.805 493.066 609.924 493.169 610.048C493.272 610.172 493.368 610.301 493.459 610.435C493.549 610.568 493.632 610.706 493.709 610.848C493.785 610.99 493.854 611.136 493.916 611.285C494.51 612.729 494.32 614.276 493.639 615.648C492.517 617.911 490.826 618.8 488.529 619.605C487.447 619.358 486.246 619.141 485.251 618.638C484.064 618.038 483.147 616.921 482.725 615.668C482.21 614.139 482.345 612.694 483.19 611.304C484.332 609.428 485.912 608.642 487.96 608.082Z" fill="#2A0704"/>
<path d="M454.083 805.922C460.293 806.725 466.747 809.53 472.639 811.603L499.79 821.247C504.786 823.028 510.453 825.788 515.802 825.716C518.247 837.259 523.456 848.9 527.464 860.006C513.884 866.803 493.346 879.962 478.727 882.482C475.7 881.636 472.664 879.613 469.523 879.523L468.778 880.227C468.412 881.588 468.511 882.199 468.933 883.536C470.723 885.205 473.401 885.865 475.669 886.702C472.684 888.049 469.685 888.976 466.542 889.881C464.81 890.348 463.054 890.688 461.273 890.901C456.954 891.429 451.409 890.31 448.002 887.494C443.311 883.617 445.011 879.209 444.557 874.012C443.183 873.173 441.445 875.47 439.213 874.565C432.637 871.899 439.811 858.821 437.505 854.763C437.37 854.776 437.232 854.768 437.1 854.8C435.067 855.289 433.08 858.557 431.875 860.19C431.157 859.756 430.45 859.304 429.755 858.835C427.424 857.236 425.206 855.115 424.737 852.207C423.726 845.932 432.558 838.671 435.734 833.812C436.411 832.776 436.711 832.264 436.417 831.023C435.563 830.613 435.534 830.504 434.508 830.571C430.483 830.835 426.651 836.833 424.295 839.727C421.228 838.529 415.539 837.044 413.564 834.304C413.542 833.723 413.5 833.662 413.69 833.021C415.657 826.359 446.817 809.87 454.083 805.922Z" fill="#F2EEE6"/>
<path d="M660.606 992.575C663.98 1002.8 667.067 1013.11 669.868 1023.5H572.36C588.621 982.571 599.587 946.474 605.181 902.535C605.466 900.297 605.792 898.028 606.121 895.742C606.931 890.102 607.756 884.362 608.012 878.736C612.825 885.17 616.753 892.424 620.609 899.543C621.02 900.302 621.43 901.059 621.84 901.813C626.994 911.51 631.87 921.345 636.468 931.318C641.066 941.291 645.378 951.387 649.405 961.605C653.431 971.822 657.164 982.146 660.606 992.575Z" stroke="black"/>
<path d="M550.599 346.191C559.6 345.008 570.143 346.485 578.96 348.383C605.005 353.989 626.227 372.672 640.34 394.647C653.716 415.473 661.061 439.795 655.54 464.468C652.656 477.355 646.322 485.936 636.803 494.893C634.053 497.481 630.991 500.511 627.767 502.486C626.688 503.146 626.981 503.005 625.916 502.742C621.701 488.146 617.994 473.946 611.836 459.984C601.981 437.642 576.059 391.19 552.652 382.735C545.662 380.21 538.774 382.586 532.467 385.699C531.41 385.089 530.333 384.472 529.339 383.76C525.289 380.858 521.264 374.799 520.528 369.924C519.87 365.566 521.408 361.405 524.083 358C530.463 349.879 540.848 347.307 550.599 346.191Z" fill="#F2EEE6"/>
<path d="M335.416 781.128C346.239 774.038 356.972 766.813 367.613 759.453C375.98 753.63 384.172 747.465 392.79 742.02C388.301 756.662 384.384 771.456 381.039 786.401C377.694 801.347 374.93 816.399 372.747 831.557C368.074 864.094 366.036 897.452 363.988 930.239C347.441 930.974 330.55 930.178 313.974 930.104C307.177 930.074 299.68 929.453 292.974 930.508C286.142 891.582 281.155 852.292 273.841 813.46C294.137 808.061 314.546 803.735 335.468 801.619C335.44 794.797 335.284 787.948 335.416 781.128Z" fill="#F2EEE6"/>
<path d="M546.057 386.691C546.631 386.732 547.172 386.78 547.736 386.894C563.025 389.98 580.007 414.606 588.331 427.015C581.843 433.022 575.715 440.335 570.769 447.672C567.962 451.837 565.554 456.543 562.3 460.362C561.542 461.251 560.452 462.313 559.927 463.35C559.328 464.533 559.395 464.881 559.746 466.048L560.758 466.59C563.548 466.182 566.047 464.221 568.538 462.955C572.835 460.773 577.392 459.613 582.094 461.29C586.086 462.714 589.613 466.101 591.292 469.978C593.382 474.803 592.983 480.715 591.044 485.522C587.831 493.486 580.234 497.867 571.812 497.748C569.957 497.722 567.481 496.931 565.791 497.678C565.63 497.998 565.412 498.377 565.373 498.738C565.018 502.02 568.229 501.713 569.839 503.465C571.165 504.908 570.441 539.114 570.326 543.912C559.915 547.209 549.63 550.863 539.473 554.875C537.607 553.849 535.862 552.936 533.727 552.641C524.807 551.407 515.474 556.709 508.544 561.753L508.525 561.769L504.612 560.387L502.994 559.958C502.106 557.298 503.428 551.303 503.636 548.339C504.253 539.535 504.521 530.868 504.005 522.055C506.959 522.646 510.035 523.078 513.032 523.366C519.293 523.968 539.014 523.329 543.342 519.298C544.233 518.469 544.445 518.037 544.413 516.845C541.739 514.183 524.417 518.246 519.809 518.36C514.942 518.481 509.852 517.949 505.047 517.212C497.829 516.106 490.775 514.343 486.332 508.016C474.979 491.852 479.938 461.402 483.501 442.875C477.39 436.15 470.632 430.362 464.852 423.248C479.449 419.672 489.087 418.795 503.008 411.609C518.093 403.822 528.238 388.798 546.057 386.691Z" fill="#F2EEE6"/>
<path d="M573.114 470.51C574.761 470.445 576.292 470.423 577.809 471.173C579.601 472.058 580.849 473.405 581.355 475.361C582.08 478.157 581.197 480.354 579.79 482.727C579.504 481.046 579.112 479.494 578.574 477.876C577.436 476.201 576.345 474.361 574.202 473.899C571.309 473.276 567.914 475.724 565.554 477.129C567.863 474.228 569.715 472.2 573.114 470.51Z" fill="#2A0704"/>
<path d="M538.954 394.559C543.545 394.724 547.377 395.848 550.994 398.789C551.463 399.169 551.913 399.571 552.343 399.995C552.772 400.419 553.18 400.864 553.565 401.329C553.95 401.794 554.312 402.277 554.649 402.778C554.986 403.279 555.298 403.796 555.583 404.328C555.869 404.86 556.128 405.405 556.359 405.963C556.59 406.52 556.793 407.088 556.968 407.667C557.143 408.245 557.288 408.83 557.405 409.422C557.521 410.014 557.608 410.611 557.665 411.213C558.058 415.233 557.146 418.791 554.631 421.926L552.701 421.742C548.466 418.431 551.207 410.294 548.603 405.628C546.232 401.376 540.001 400.597 537.432 396.83C537.682 395.485 537.901 395.47 538.954 394.559Z" fill="#2A0704"/>
<path d="M527.557 465.553C527.839 465.525 528.122 465.495 528.404 465.47C530.079 465.326 531.197 465.489 532.498 466.578C532.272 467.686 532.008 468.198 531.097 468.916C523.178 475.167 506.797 476.039 497.11 474.845C496.038 474.628 494.732 474.261 493.814 473.645C492.691 472.893 491.931 471.867 491.63 470.556C492.319 469.255 493.134 468.671 494.63 468.482C496.764 468.211 499.945 469.504 502.222 469.655C511.27 470.252 519.052 468.36 527.557 465.553Z" fill="#2A0704"/>
<path d="M531.35 410.527C533.082 410.528 534.701 410.716 536.263 411.53C538.744 412.822 540.323 414.835 541.045 417.53C543.005 424.844 539.268 434.778 535.432 440.97C531.897 446.676 527.553 451.008 520.83 452.53C519.287 452.508 517.562 452.217 516.158 451.556C513.667 450.382 511.784 448.397 510.923 445.769C508.97 439.813 511.403 431.833 514.078 426.393C517.794 418.837 523.282 413.274 531.35 410.527Z" fill="#2A0704"/>
<path d="M523.229 421.381C523.677 421.968 523.506 421.68 523.83 422.385C526.131 427.405 528.817 432.012 532.03 436.502C529.896 440.586 527.567 443.45 523.858 446.129C523.248 446.302 522.635 446.492 522.002 446.57C520.39 446.768 518.351 446.373 517.182 445.185C516.089 444.075 515.713 442.436 515.602 440.938C515.079 433.877 518.616 426.545 523.229 421.381Z" fill="#F2EEE6"/>
<path d="M317.32 580.802L317.32 580.802L341.293 641.078L341.295 641.081C342.344 643.672 343.363 646.327 344.388 649.001C346.994 655.793 349.647 662.71 352.983 669.01L353.425 668.776L352.983 669.01C354.495 671.866 356.363 674.726 359.119 676.658L359.25 676.75L359.411 676.748C359.697 676.746 360.03 676.658 360.381 676.529C360.741 676.396 361.16 676.205 361.63 675.962C362.571 675.478 363.751 674.774 365.133 673.884C367.899 672.104 371.507 669.559 375.69 666.485C384.057 660.335 394.749 652.05 405.651 643.488C412.102 638.423 418.624 633.262 424.782 628.39C438.068 617.879 449.659 608.707 455.191 604.715C452.72 609.887 449.906 614.856 447.028 619.808C446.487 620.74 445.943 621.672 445.398 622.604C442.738 627.16 440.068 631.732 437.62 636.447C425.045 660.664 413.926 685.127 403.794 710.438C401.385 716.221 399.323 722.177 397.273 728.098C396.681 729.807 396.09 731.514 395.492 733.212C393.453 734.619 391.355 735.951 389.243 737.28C389.006 737.429 388.769 737.577 388.533 737.726C386.611 738.934 384.683 740.146 382.793 741.411L382.789 741.413L347.797 765.291L347.795 765.293C346.271 766.346 344.719 767.389 343.159 768.436C337.956 771.931 332.662 775.486 328.042 779.697C309.227 742.161 295.229 700.183 281.641 659.432C278.144 648.947 274.675 638.542 271.158 628.316L270.685 628.478L271.158 628.316C270.491 626.376 269.414 623.445 268.148 619.995C266.616 615.823 264.806 610.892 263.105 606.041C261.544 601.593 260.068 597.191 258.96 593.447C257.891 589.833 257.18 586.881 257.05 585.093C257.087 585.053 257.122 585.014 257.153 584.98C257.183 584.945 257.211 584.915 257.232 584.892C257.331 584.786 257.399 584.73 257.462 584.698L257.462 584.698C257.693 584.58 258.101 584.475 258.658 584.39C259.202 584.307 259.838 584.25 260.493 584.206C260.982 584.173 261.488 584.148 261.971 584.123C262.753 584.084 263.471 584.048 263.941 583.99L263.941 583.99C269.38 583.317 274.819 582.396 280.12 580.908L280.12 580.908C291.093 577.827 301.737 571.185 311.255 565.138C311.736 565.767 312.233 566.683 312.734 567.802C313.323 569.118 313.898 570.669 314.449 572.268C314.888 573.545 315.314 574.862 315.716 576.106C316.312 577.949 316.857 579.634 317.32 580.802Z" stroke="black"/>
<path d="M591.244 586.665L591.244 586.665C574.538 588.521 561.678 597.708 551.245 610.646C534.808 631.03 520.805 660.995 511.641 692.378C502.476 723.762 498.168 756.507 501.075 782.437C501.263 784.09 501.496 785.736 501.774 787.376C502.052 789.016 502.375 790.647 502.742 792.27L502.742 792.27C503.108 793.893 503.518 795.504 503.973 797.104L503.973 797.104C504.427 798.704 504.924 800.291 505.465 801.864L504.992 802.026L505.465 801.864C506.005 803.437 506.588 804.995 507.213 806.536L507.213 806.536C507.838 808.078 508.504 809.601 509.212 811.106C509.921 812.612 510.669 814.097 511.457 815.561C512.169 816.884 512.913 818.188 513.69 819.474C533.672 808.202 555.699 801.754 577.556 795.356L578.45 795.095C578.45 795.095 578.451 795.095 578.451 795.094C590.813 791.428 603.207 787.877 615.635 784.441C609.552 774.485 604.405 763.809 599.291 753.201C596.715 747.858 594.148 742.533 591.474 737.327C589.376 733.242 587.02 728.991 584.622 724.668C583.492 722.631 582.353 720.577 581.228 718.516C577.721 712.094 574.355 705.617 571.857 699.43C571.145 697.666 570.506 695.819 570.926 693.753L570.992 693.427L571.318 693.362L572.005 693.225L572.244 693.177L572.429 693.336C574.323 694.967 575.587 697.13 576.786 699.182C576.878 699.339 576.969 699.496 577.06 699.651C579.839 704.385 590.545 724.661 600.597 744.416C605.624 754.296 610.492 764.053 614.128 771.68C615.945 775.492 617.457 778.777 618.526 781.279C619.061 782.53 619.488 783.591 619.788 784.428C620.081 785.245 620.273 785.903 620.303 786.319M591.244 586.665L619.804 786.354M591.244 586.665L591.253 586.664M591.244 586.665L591.253 586.664M620.303 786.319L619.804 786.354M620.303 786.319C620.303 786.319 620.303 786.319 620.303 786.318L619.804 786.354M620.303 786.319C620.333 786.74 620.3 786.937 620.252 787.217C620.249 787.238 620.245 787.26 620.241 787.283L620.194 787.564L619.928 787.667C614.599 789.728 609.093 791.373 603.619 793.008C601.587 793.616 599.559 794.221 597.546 794.847C593.068 796.238 588.56 797.602 584.044 798.969C567.094 804.099 550.014 809.268 533.827 816.066M619.804 786.354C619.83 786.716 619.804 786.866 619.759 787.133C619.756 787.154 619.752 787.177 619.748 787.2C614.438 789.254 608.961 790.891 603.493 792.524C601.457 793.132 599.422 793.74 597.398 794.369C592.927 795.758 588.425 797.12 583.912 798.486C566.951 803.619 549.83 808.8 533.609 815.615C533.682 815.765 533.754 815.915 533.827 816.066M533.827 816.066C536.724 822.117 539.182 828.43 541.627 834.711C542.956 838.125 544.282 841.529 545.672 844.876L545.21 845.068M533.827 816.066C533.673 816.131 533.519 816.195 533.365 816.26C536.259 822.301 538.707 828.589 541.15 834.865C542.481 838.284 543.811 841.698 545.21 845.068M545.21 845.068L545.672 844.876C546.835 847.679 548.097 850.462 549.363 853.254C552.18 859.467 555.016 865.723 556.833 872.326M545.21 845.068C546.387 847.903 547.657 850.704 548.927 853.505C551.738 859.705 554.55 865.906 556.355 872.474L556.833 872.326M556.833 872.326L610.335 855.774L610.338 855.773C644.217 845.471 678.16 835.103 710.299 820.188M556.833 872.326C556.877 872.487 556.921 872.648 556.964 872.809L710.299 820.188M710.299 820.188C710.348 820.33 710.396 820.472 710.445 820.613L710.918 820.452L710.707 819.999C710.571 820.062 710.435 820.125 710.299 820.188ZM710.299 820.188C705.664 806.667 699.776 793.744 693.859 780.754C692.636 778.071 691.412 775.385 690.198 772.69C679.973 749.996 669.642 727.484 658.991 704.989C655.166 696.913 651.42 688.764 647.668 680.602C636.699 656.742 625.683 632.779 612.522 610.237L612.954 609.985M710.299 820.188L659.443 704.775C655.624 696.711 651.881 688.569 648.131 680.411C637.159 656.545 626.128 632.55 612.954 609.985M612.954 609.985L612.522 610.237L612.364 609.966C610.435 606.66 607.648 601.885 604.547 597.473C601.343 592.916 597.864 588.836 594.701 587.115C593.576 586.503 592.593 586.491 591.253 586.664M612.954 609.985L591.253 586.664M616.137 784.303C616.227 784.451 616.318 784.599 616.409 784.746C616.242 784.792 616.074 784.839 615.907 784.885L616.137 784.303Z" stroke="black"/>
<path d="M479.32 593.961C462.576 615.158 447.812 644.866 437.392 669.868C436.281 672.534 432.893 679.175 433.438 681.855C433.501 682.166 433.629 682.459 433.725 682.761C438.299 684.368 485.535 690.037 490.694 689.319C492.136 688.603 493.032 686.113 493.658 684.651C496.126 678.88 498.087 672.872 500.409 667.038C507.794 648.486 516.206 628.164 527.901 611.83C530.775 607.816 534.57 604.329 537.939 600.73C550.323 587.499 555.823 581.643 573.155 574.702C578.499 572.561 591.622 566.209 597.386 568.886C598.427 569.37 599.2 569.946 599.518 571.109C599.836 572.267 599.555 573.73 598.777 574.651C597.796 575.815 596.413 576.467 594.906 576.407C592.661 576.316 590.381 575.708 588.137 575.899C578.024 576.764 566.461 584.824 559.05 591.298C527.432 618.918 512.148 665.016 502.742 704.612C498.396 722.904 494.82 741.874 493.626 760.66C492.449 779.167 493.295 800.293 502.73 816.698C486.755 811.231 470.798 805.104 454.5 800.692C444.179 804.223 413.245 821.734 408.889 831.284C408.277 832.627 408.297 834.017 408.81 835.379C410.448 839.721 416.552 841.945 420.544 843.558L421.478 843.927C420.388 846.378 419.504 848.628 418.909 851.258C420.572 858.756 424.077 861.079 430.328 865.065L431.516 865.819C431.689 870.273 432.051 874.49 435.482 877.763C436.554 878.785 437.762 879.571 439.061 880.267C440.313 885.694 442.054 890.164 447.015 893.305C453.636 897.499 462.596 896.671 469.873 894.831C474.119 893.757 478.279 892.243 482.403 890.781C502.276 895.043 521.632 892.594 540.501 885.415C545.447 883.533 550.167 881.088 555.114 879.227C559.949 877.409 565.065 876.186 569.995 874.618C577.629 872.191 585.198 869.474 592.884 867.224C579.595 879.216 566.933 891.841 553.289 903.454C534.771 919.214 514.995 933.485 495.37 947.815C486.817 954.06 452.73 976.722 448.213 984.181L448.48 983.749L449.562 984.63C460.964 979.644 471.627 970.887 481.811 963.795C518.823 938.021 554.91 911.583 587.299 880.053C576.377 905.328 555.353 937.418 538.374 958.855C533.32 965.147 528.1 971.298 522.713 977.308C518.654 981.851 505.299 994.32 503.443 999.015L503.826 999.407C508.8 998.062 513.36 993.441 517.065 990.023C540.366 968.526 561.325 939.306 577.085 911.901C582.89 901.888 588.225 891.631 593.091 881.13C594.347 878.419 598.318 867.542 599.265 866.233C599.552 865.836 600.049 865.646 600.44 865.352L601.567 865.332C602.913 867.983 601.771 874.992 601.564 878.174C599.234 913.983 591.398 950.157 580.251 984.217C575.82 997.755 570.171 1010.66 565.3 1024H368.207C367.546 1003.5 367.524 982.991 368.139 962.486C368.898 925.965 371.014 889.099 376.062 852.9C377.197 844.986 378.467 837.093 379.871 829.223C381.274 821.351 382.811 813.506 384.481 805.688C386.151 797.869 387.953 790.081 389.888 782.324C391.823 774.566 393.888 766.843 396.085 759.156C398.282 751.468 400.608 743.821 403.065 736.213C405.521 728.604 408.106 721.039 410.819 713.519C413.532 705.998 416.373 698.526 419.34 691.102C422.307 683.678 425.4 676.306 428.617 668.987C440.317 642.888 453.708 616.704 469.979 593.123C473.446 594.82 475.656 594.504 479.32 593.961Z" fill="#F2EEE6"/>
<g filter="url(#filter0_d_2040_488)">
<path d="M285.463 276V171H320.863V276H285.463ZM346.904 276V171H397.454C407.254 171 415.704 172.6 422.804 175.8C430.004 179 435.554 183.6 439.454 189.6C443.354 195.5 445.305 202.5 445.305 210.6C445.305 218.7 443.354 225.7 439.454 231.6C435.554 237.4 430.004 241.85 422.804 244.95C415.704 248.05 407.254 249.6 397.454 249.6H366.554L382.304 235.05V276H346.904ZM409.754 276L383.954 237.75H421.454L447.554 276H409.754ZM382.304 238.95L366.554 222.9H395.204C400.104 222.9 403.704 221.8 406.004 219.6C408.404 217.4 409.604 214.4 409.604 210.6C409.604 206.8 408.404 203.8 406.004 201.6C403.704 199.4 400.104 198.3 395.204 198.3H366.554L382.304 182.25V238.95ZM467.672 276V171H496.772L538.772 239.55H523.472L564.272 171H593.372L593.672 276H561.422L561.122 219.6H566.222L538.322 266.55H522.722L493.622 219.6H499.922V276H467.672ZM608.387 276L654.287 171H689.087L734.987 276H698.387L664.487 187.8H678.287L644.387 276H608.387ZM635.687 257.7L644.687 232.2H692.987L701.987 257.7H635.687Z" fill="#F2EEE6"/>
</g>
</g>
<defs>
<filter id="filter0_d_2040_488" x="285.463" y="171" width="459.524" height="113" filterUnits="userSpaceOnUse" color-interpolation-filters="sRGB">
<feFlood flood-opacity="0" result="BackgroundImageFix"/>
<feColorMatrix in="SourceAlpha" type="matrix" values="0 0 0 0 0 0 0 0 0 0 0 0 0 0 0 0 0 0 127 0" result="hardAlpha"/>
<feOffset dx="10" dy="8"/>
<feComposite in2="hardAlpha" operator="out"/>
<feColorMatrix type="matrix" values="0 0 0 0 0 0 0 0 0 0 0 0 0 0 0 0 0 0 0.25 0"/>
<feBlend mode="normal" in2="BackgroundImageFix" result="effect1_dropShadow_2040_488"/>
<feBlend mode="normal" in="SourceGraphic" in2="effect1_dropShadow_2040_488" result="shape"/>
</filter>
<clipPath id="clip0_2040_488">
<rect width="1024" height="1024" rx="250" fill="white"/>
</clipPath>
</defs>
</svg>
